<svg xmlns="http://www.w3.org/2000/svg" viewBox="0 0 64 64" role="img" aria-label="BL monogram">
  <defs>
    <linearGradient id="background" x1="8" y1="6" x2="56" y2="58" gradientUnits="userSpaceOnUse">
      <stop stop-color="#10263c"/>
      <stop offset="1" stop-color="#07111f"/>
    </linearGradient>
    <linearGradient id="accent" x1="18" y1="15" x2="47" y2="49" gradientUnits="userSpaceOnUse">
      <stop stop-color="#62e6d4"/>
      <stop offset="1" stop-color="#67c7ed"/>
    </linearGradient>
  </defs>
  <rect width="64" height="64" rx="16" fill="url(#background)"/>
  <rect x="4" y="4" width="56" height="56" rx="13" fill="none" stroke="url(#accent)" stroke-opacity=".55"/>
  <path fill="url(#accent)" d="M17 17h13.2c7.2 0 11.3 3.1 11.3 8.2 0 3.1-1.7 5.5-4.7 6.7 3.9 1 6.1 3.6 6.1 7.2 0 5.7-4.5 8.9-12.2 8.9H17V17Zm12.5 12.3c3.1 0 4.7-1.2 4.7-3.4 0-2.1-1.6-3.2-4.7-3.2h-5.3v6.6h5.3Zm.7 13c3.5 0 5.3-1.3 5.3-3.8 0-2.4-1.8-3.7-5.3-3.7h-6v7.5h6Z"/>
  <path fill="#dffaf6" d="M44 17h7v31h-7z" opacity=".92"/>
</svg>
